<svg xmlns="http://www.w3.org/2000/svg" width="512" height="512" viewBox="0 0 135.46666 135.46667">
  <defs/>
  <g stroke="#404040" stroke-linecap="round" stroke-linejoin="round" stroke-width="4.25187">
    <path fill="#fcf4b0" d="M-55.350143 77.794151H7.525726999999996V140.670021H-55.350143z" style="mix-blend-mode:multiply" transform="matrix(1.2652435,0,0,1.2408044,-17.965821,-16.31048) matrix(0.79387509,-0.60808087,0.79387509,0.60808087,0,0)"/>
    <path fill="#fae966" d="M-44.472343 66.916351H18.403526999999997V129.792221H-44.472343z" transform="matrix(1.2652435,0,0,1.2408044,-17.965821,-16.31048) matrix(0.79387509,-0.60808087,0.79387509,0.60808087,0,0)"/>
    <path fill="#f7df1c" d="M-33.594536 56.038548H29.281334V118.914418H-33.594536z" transform="matrix(1.2652435,0,0,1.2408044,-17.965821,-16.31048) matrix(0.79387509,-0.60808087,0.79387509,0.60808087,0,0)"/>
  </g>
  <g fill="#404040" stroke-width=".264583" aria-label="eslint-config-import" font-family="Arial" font-size="7.05556px" style="line-height:1.25;-inkscape-font-specification:'Arial, Normal';font-variant-ligatures:none">
    <path d="M40.770276 51.841106l.640788.07924q-.151584.561551-.561551.87161-.409966.310058-1.047309.310058-.802708 0-1.274686-.492649-.468534-.496094-.468534-1.388374 0-.923286.475424-1.433161.475423-.509874 1.233345-.509874.733806 0 1.198894.499539.465088.499539.465088 1.4056 0 .05512-.0034.165365h-2.728518q.03445.602892.341065.923286.306614.320394.764812.320394.341065 0 .582221-.179145.241157-.179145.382406-.571886zm-2.036053-1.002524h2.042943q-.04134-.461643-.234266-.692464-.296279-.358291-.768257-.358291-.427192 0-.720025.285944-.289389.285943-.320395.764811zM41.945054 51.927233l.613228-.09646q.05168.368626.285943.564996.237712.196371.661459.196371.427192 0 .633898-.172255.206706-.1757.206706-.409967 0-.210151-.182591-.330729-.127468-.08268-.633898-.210151-.682129-.172255-.947401-.296278-.261828-.127469-.399632-.347955-.134359-.223932-.134359-.492649 0-.244602.110243-.451308.113689-.210151.306614-.347955.144694-.106798.392741-.179145.251492-.07579.537436-.07579.430637 0 .754476.124023.327284.124024.482314.33762.155029.210151.213596.564996l-.606337.08268q-.04134-.282498-.241157-.440972-.196371-.158475-.558106-.158475-.427192 0-.609782.141249-.182591.141249-.182591.33073 0 .120578.07579.217041.07579.09991.237711.165365.09302.03445.547771.158474.658013.1757.916396.289388.261827.110243.409966.32384.14814.213596.14814.530545 0 .310058-.182591.585666-.179145.272163-.520209.423747-.341065.148139-.771702.148139-.713135 0-1.088651-.296278-.372071-.296278-.475424-.8785zM45.707101 53.019329v-5.050513h.620118v5.050513zM47.295291 48.681951v-.713135h.620117v.713135zm0 4.337378v-3.658694h.620117v3.658694zM48.86281 53.019329v-3.658694h.558106v.52021q.403077-.602892 1.164443-.602892.33073 0 .606337.120578.279053.117134.416857.310059.137804.192926.192926.458198.03445.172255.03445.602892v2.249649h-.620118v-2.225533q0-.378961-.07235-.564996-.07235-.18948-.258382-.299724-.18259-.113688-.430637-.113688-.396187 0-.685575.251492-.285943.251492-.285943.954292v1.998157zM54.144146 52.464668l.08957.547771q-.261827.05512-.468533.05512-.337619 0-.523655-.106798-.186035-.106798-.261827-.279053-.07579-.175699-.07579-.733805v-2.104955h-.454753v-.482314h.454753v-.90606l.616672-.372071v1.278131h.623563v.482314h-.623563v2.139406q0 .265272.03101.341064.03445.07579.106798.120579.07579.04479.213596.04479.103353 0 .272163-.02412zM54.505881 51.503486v-.623563h1.905139v.623563zM59.490936 51.679186l.609783.07924q-.09991.630453-.51332.988743-.409967.354845-1.009414.354845-.751031 0-1.209229-.489203-.454753-.492649-.454753-1.409045 0-.592557.196371-1.036975.19637-.444417.596002-.664904.403076-.223931.875054-.223931.596002 0 .974963.303169.378961.299723.485759.854384l-.602892.09302q-.08613-.368625-.306614-.55466-.217041-.186036-.5271-.186036-.468533 0-.761366.33762-.292834.334174-.292834 1.06109 0 .737251.282498 1.071425.282498.334175.737251.334175.36518 0 .609782-.223931.244602-.223932.310059-.68902zM60.400442 51.189982q0-1.016304.564997-1.505508.471978-.406521 1.150662-.406521.754477 0 1.233345.496094.478869.492649.478869 1.364259 0 .706245-.213596 1.112766-.210151.403077-.616673.627008-.403076.223931-.881945.223931-.768257 0-1.24368-.492649-.471979-.492649-.471979-1.41938zm.637344 0q0 .7028.306613 1.0542.306614.347955.771702.347955.461643 0 .768257-.3514.306614-.3514.306614-1.071425 0-.678685-.310059-1.02664-.306614-.351399-.764812-.351399-.465088 0-.771702.347954-.306613.347955-.306613 1.050755zM64.558676 53.019329v-3.658694h.558106v.52021q.403076-.602892 1.164443-.602892.330729 0 .606337.120578.279053.117134.416857.310059.137804.192926.192925.458198.03445.172255.03445.602892v2.249649h-.620117v-2.225533q0-.378961-.07235-.564996-.07235-.18948-.258383-.299724-.18259-.113688-.430637-.113688-.396186 0-.685574.251492-.285943.251492-.285943.954292v1.998157zM68.634225 53.019329v-3.17638h-.54777v-.482314h.54777v-.389296q0-.368625.06546-.54777.08957-.241157.313504-.389296.227377-.151585.633898-.151585.261828 0 .578777.06201l-.09302.54088q-.192926-.03445-.36518-.03445-.282498 0-.399632.120578-.117133.120578-.117133.451308v.337619h.713135v.482314h-.713135v3.17638zM70.446347 48.681951v-.713135h.620118v.713135zm0 4.337378v-3.658694h.620118v3.658694zM71.900179 53.322498l.602892.08957q.0379.279053.210151.406522.230821.172255.630452.172255.430638 0 .664904-.172255.234267-.172255.316949-.482314.04823-.18948.04479-.795818-.406522.478869-1.012859.478869-.754477 0-1.167888-.544325-.413412-.544326-.413412-1.305692 0-.523655.18948-.964628.189481-.444417.547771-.685574.361735-.241157.847494-.241157.647678 0 1.06798.523655v-.440973h.571886v3.1626q0 .854384-.1757 1.209229-.172254.35829-.551215.564996-.375516.206706-.926731.206706-.654569 0-1.057645-.296278-.403077-.292834-.389296-.88539zm.513319-2.197973q0 .720026.285943 1.050755.285943.33073.71658.33073.427193 0 .716581-.327285.289388-.330729.289388-1.033529 0-.671794-.299723-1.012859-.296279-.341064-.716581-.341064-.413412 0-.7028.337619-.289388.334175-.289388.995633zM75.70012 51.503486v-.623563h1.905139v.623563zM78.301171 48.681951v-.713135h.620118v.713135zm0 4.337378v-3.658694h.620118v3.658694zM79.868691 53.019329v-3.658694h.554661v.51332q.172254-.268718.458198-.430637.285943-.165365.651123-.165365.406522 0 .664904.16881.261827.16881.368625.471978.434083-.640788 1.129992-.640788.544326 0 .837159.303169.292833.299723.292833.926731v2.511476h-.616672v-2.30477q0-.372071-.06201-.53399-.05857-.165365-.217041-.265273-.158475-.09991-.372071-.09991-.385851 0-.640788.258383-.254937.254937-.254937.819933v2.125625h-.620118v-2.377117q0-.413412-.151584-.620118-.151584-.206706-.496094-.206706-.261827 0-.485759.137804-.220486.137804-.320394.403077-.09991.265272-.09991.764811v1.898249zM85.752915 54.421484v-5.060849h.564996v.475424q.199815-.279053.451308-.416857.251492-.141249.609782-.141249.468533 0 .826823.241157.35829.241157.540881.682129.18259.437528.18259.961182 0 .561551-.203261 1.012859-.199816.447863-.585667.68902-.382405.237711-.806152.237711-.310059 0-.558106-.130913-.244602-.130914-.403077-.33073v1.781116zm.561551-3.210831q0 .706245.285943 1.043864.285943.33762.692464.33762.413412 0 .706245-.347955.296279-.3514.296279-1.085206 0-.699355-.289388-1.047309-.285943-.347955-.685575-.347955-.396186 0-.7028.37207-.303168.368626-.303168 1.074871zM89.449507 51.189982q0-1.016304.564996-1.505508.471979-.406521 1.150663-.406521.754476 0 1.233345.496094.478868.492649.478868 1.364259 0 .706245-.213596 1.112766-.210151.403077-.616672.627008-.403077.223931-.881945.223931-.768257 0-1.24368-.492649-.471979-.492649-.471979-1.41938zm.637343 0q0 .7028.306614 1.0542.306614.347955.771702.347955.461643 0 .768257-.3514.306613-.3514.306613-1.071425 0-.678685-.310059-1.02664-.306613-.351399-.764811-.351399-.465088 0-.771702.347954-.306614.347955-.306614 1.050755zM93.600849 53.019329v-3.658694h.558105v.554661q.213596-.389296.392742-.51332.18259-.124023.399631-.124023.313504 0 .637343.199816L95.375074 50.0531q-.227377-.134359-.454753-.134359-.203261 0-.36518.124024-.16192.120578-.230822.337619-.103353.33073-.103353.723471v1.915474zM97.318108 52.464668l.08957.547771q-.261827.05512-.468533.05512-.33762 0-.523655-.106798-.186035-.106798-.261828-.279053-.07579-.175699-.07579-.733805v-2.104955h-.454753v-.482314h.454753v-.90606l.616673-.372071v1.278131h.623563v.482314h-.623563v2.139406q0 .265272.03101.341064.03445.07579.106798.120579.07579.04479.213596.04479.103353 0 .272163-.02412z"/>
  </g>
</svg>
